<?xml version="1.0" encoding="UTF-8" standalone="no"?>
<svg
   xmlns:dc="http://purl.org/dc/elements/1.1/"
   xmlns:cc="http://creativecommons.org/ns#"
   xmlns:rdf="http://www.w3.org/1999/02/22-rdf-syntax-ns#"
   xmlns:svg="http://www.w3.org/2000/svg"
   xmlns="http://www.w3.org/2000/svg"
   xmlns:sodipodi="http://sodipodi.sourceforge.net/DTD/sodipodi-0.dtd"
   xmlns:inkscape="http://www.inkscape.org/namespaces/inkscape"
   width="210mm"
   height="297mm"
   viewBox="0 0 210 297"
   version="1.1"
   id="svg27618"
   inkscape:version="1.0.2-2 (e86c870879, 2021-01-15)"
   sodipodi:docname="line.svg">
  <defs
     id="defs27612" />
  <sodipodi:namedview
     id="base"
     pagecolor="#ffffff"
     bordercolor="#666666"
     borderopacity="1.0"
     inkscape:pageopacity="0.0"
     inkscape:pageshadow="2"
     inkscape:zoom="1.6635714"
     inkscape:cx="448.42307"
     inkscape:cy="598.15075"
     inkscape:document-units="mm"
     inkscape:current-layer="layer1"
     inkscape:document-rotation="0"
     showgrid="false"
     inkscape:window-width="1920"
     inkscape:window-height="1017"
     inkscape:window-x="-8"
     inkscape:window-y="-8"
     inkscape:window-maximized="1" />
  <metadata
     id="metadata27615">
    <rdf:RDF>
      <cc:Work
         rdf:about="">
        <dc:format>image/svg+xml</dc:format>
        <dc:type
           rdf:resource="http://purl.org/dc/dcmitype/StillImage" />
        <dc:title></dc:title>
      </cc:Work>
    </rdf:RDF>
  </metadata>
  <g
     inkscape:label="Layer 1"
     inkscape:groupmode="layer"
     id="layer1">
    <path
       d="m 209.42426,163.62635 v 0 0 c 0.0353,-0.0367 0.0706,-0.0734 0.10936,-0.11007 0.0212,-0.0233 0.0459,-0.0466 0.0706,-0.0702 -0.0247,0.0243 -0.0494,0.048 -0.0741,0.072 -0.0353,0.036 -0.0706,0.0723 -0.10584,0.10831 v 0 0"
       style="fill:#4d4d4d;fill-opacity:1;fill-rule:nonzero;stroke:none;stroke-width:0.0352778"
       id="path6510" />
    <path
       d="m 117.786,154.2922 v 0 0 0 0 m 0,0 c -0.06,-3.5e-4 -0.12029,-7.1e-4 -0.18026,-7.1e-4 v 0 c 0.0303,-0.0512 0.0603,-0.0762 0.0903,-0.0762 0.03,0 0.06,0.0258 0.0899,0.0769 v 0"
       style="fill:#4d4d4d;fill-opacity:1;fill-rule:nonzero;stroke:none;stroke-width:0.0352778"
       id="path11428"
       inkscape:export-xdpi="300"
       inkscape:export-ydpi="300" />
    <path
       d="m 119.183,155.80068 -0.0328,-0.0325 0.073,-0.0402 -0.0402,0.0727"
       style="fill:#4d4d4d;fill-opacity:1;fill-rule:nonzero;stroke:none;stroke-width:0.0352778"
       id="path11434"
       inkscape:export-xdpi="300"
       inkscape:export-ydpi="300" />
    <path
       d="M 198.1001,154.9967 H 50.45343 v -0.54187 H 198.1001 v 0.54187"
       style="fill:#4d4d4d;fill-opacity:1;fill-rule:nonzero;stroke:none;stroke-width:0.0352778"
       id="path17534"
       inkscape:export-xdpi="300"
       inkscape:export-ydpi="300" />
    <path
       d="m 125.30546,152.71352 -1.02764,-1.57304 -1.02835,1.57304 c -0.2166,0.33196 -0.17497,0.77505 0.10019,1.05763 l 0.92816,0.95461 0.92745,-0.95461 c 0.27517,-0.28258 0.3168,-0.72567 0.10019,-1.05763"
       style="fill:#4d4d4d;fill-opacity:1;fill-rule:nonzero;stroke:none;stroke-width:0.0352778"
       id="path17536"
       inkscape:export-xdpi="300"
       inkscape:export-ydpi="300" />
    <path
       d="m 123.24947,156.73765 1.02835,1.57339 1.02764,-1.57339 c 0.21661,-0.33161 0.17498,-0.7747 -0.10019,-1.05727 l -0.92745,-0.95462 -0.92816,0.95462 c -0.27516,0.28257 -0.31679,0.72566 -0.10019,1.05727"
       style="fill:#4d4d4d;fill-opacity:1;fill-rule:nonzero;stroke:none;stroke-width:0.0352778"
       id="path17538"
       inkscape:export-xdpi="300"
       inkscape:export-ydpi="300" />
    <path
       d="m 120.57118,153.02467 -1.46684,1.50883 -0.762,-0.7867 c -0.17392,-0.17956 -0.4184,-0.15663 -0.57292,0.054 -0.28045,0.38206 -0.0116,0.92498 0.45756,0.92498 -0.4692,0 -0.73801,0.54293 -0.45756,0.92499 0.15452,0.2106 0.399,0.23354 0.57292,0.0536 l 0.762,-0.78634 1.46684,1.50883 c 0.37642,0.38699 0.97261,0.42898 1.39665,0.0984 l 2.30999,-1.79952 -2.30999,-1.79952 c -0.42404,-0.33055 -1.02023,-0.28857 -1.39665,0.0984"
       style="fill:#4d4d4d;fill-opacity:1;fill-rule:nonzero;stroke:none;stroke-width:0.0352778"
       id="path17540"
       inkscape:export-xdpi="300"
       inkscape:export-ydpi="300" />
    <path
       d="m 130.33184,154.72576 c 0.50236,0 0.75636,-0.61489 0.40393,-0.97896 -0.17392,-0.17956 -0.41875,-0.15663 -0.57326,0.054 l -0.61243,0.83502 -1.56633,-1.61113 c -0.37606,-0.387 -0.97225,-0.42898 -1.39665,-0.0984 l -2.30928,1.79952 2.30928,1.79952 c 0.4244,0.33056 1.02059,0.28857 1.39665,-0.0984 l 1.56633,-1.61114 0.61243,0.83503 c 0.15451,0.2106 0.39934,0.23354 0.57326,0.0536 0.35243,-0.36372 0.0984,-0.97861 -0.40393,-0.97861"
       style="fill:#4d4d4d;fill-opacity:1;fill-rule:nonzero;stroke:none;stroke-width:0.0352778"
       id="path17542"
       inkscape:export-xdpi="300"
       inkscape:export-ydpi="300" />
    <path
       d="m 143.69894,153.73869 -0.50412,-0.77223 -0.50447,0.77223 c -0.10654,0.16263 -0.0861,0.37994 0.049,0.51858 l 0.45543,0.46849 0.45509,-0.46849 c 0.13476,-0.13864 0.15522,-0.35595 0.049,-0.51858"
       style="fill:#4d4d4d;fill-opacity:1;fill-rule:nonzero;stroke:none;stroke-width:0.0352778"
       id="path17544"
       inkscape:export-xdpi="300"
       inkscape:export-ydpi="300" />
    <path
       d="m 142.69035,155.71319 0.50447,0.77188 0.50412,-0.77188 c 0.10619,-0.16299 0.0857,-0.3803 -0.049,-0.51894 l -0.45509,-0.46849 -0.45543,0.46849 c -0.13512,0.13864 -0.15558,0.35595 -0.049,0.51894"
       style="fill:#4d4d4d;fill-opacity:1;fill-rule:nonzero;stroke:none;stroke-width:0.0352778"
       id="path17546"
       inkscape:export-xdpi="300"
       inkscape:export-ydpi="300" />
    <path
       d="m 145.01304,153.89109 c -0.18486,-0.18979 -0.47731,-0.21061 -0.68545,-0.0483 l -1.13277,0.883 1.13277,0.88301 c 0.20814,0.16227 0.50059,0.14146 0.68545,-0.0483 l 0.81174,-0.83468 -0.81174,-0.83467"
       style="fill:#4d4d4d;fill-opacity:1;fill-rule:nonzero;stroke:none;stroke-width:0.0352778"
       id="path17548"
       inkscape:export-xdpi="300"
       inkscape:export-ydpi="300" />
    <path
       d="m 141.3759,153.89109 -0.81139,0.83467 0.81139,0.83468 c 0.18486,0.18979 0.47731,0.2106 0.68545,0.0483 l 1.13347,-0.88301 -1.13347,-0.883 c -0.20814,-0.16228 -0.50059,-0.14146 -0.68545,0.0483"
       style="fill:#4d4d4d;fill-opacity:1;fill-rule:nonzero;stroke:none;stroke-width:0.0352778"
       id="path17550"
       inkscape:export-xdpi="300"
       inkscape:export-ydpi="300" />
    <path
       d="m 105.86494,153.73869 -0.50447,-0.77223 -0.50412,0.77223 c -0.10654,0.16263 -0.0861,0.37994 0.0487,0.51858 l 0.45544,0.46849 0.45508,-0.46849 c 0.13511,-0.13864 0.15557,-0.35595 0.0494,-0.51858"
       style="fill:#4d4d4d;fill-opacity:1;fill-rule:nonzero;stroke:none;stroke-width:0.0352778"
       id="path17552"
       inkscape:export-xdpi="300"
       inkscape:export-ydpi="300" />
    <path
       d="m 104.85635,155.71319 0.50412,0.77188 0.50447,-0.77188 c 0.10618,-0.16299 0.0857,-0.3803 -0.0494,-0.51894 l -0.45508,-0.46849 -0.45544,0.46849 c -0.13476,0.13864 -0.15522,0.35595 -0.0487,0.51894"
       style="fill:#4d4d4d;fill-opacity:1;fill-rule:nonzero;stroke:none;stroke-width:0.0352778"
       id="path17554"
       inkscape:export-xdpi="300"
       inkscape:export-ydpi="300" />
    <path
       d="m 106.49359,153.84276 -1.13312,0.883 1.13312,0.88301 c 0.20814,0.16227 0.50059,0.14146 0.68545,-0.0483 l 0.81174,-0.83468 -0.81174,-0.83467 c -0.18486,-0.18979 -0.47731,-0.21061 -0.68545,-0.0483"
       style="fill:#4d4d4d;fill-opacity:1;fill-rule:nonzero;stroke:none;stroke-width:0.0352778"
       id="path17556"
       inkscape:export-xdpi="300"
       inkscape:export-ydpi="300" />
    <path
       d="m 103.5419,153.89109 -0.81139,0.83467 0.81139,0.83468 c 0.18485,0.18979 0.4773,0.2106 0.68544,0.0483 l 1.13313,-0.88301 -1.13313,-0.883 c -0.20814,-0.16228 -0.50059,-0.14146 -0.68544,0.0483"
       style="fill:#4d4d4d;fill-opacity:1;fill-rule:nonzero;stroke:none;stroke-width:0.0352778"
       id="path17558"
       inkscape:export-xdpi="300"
       inkscape:export-ydpi="300" />
    <path
       d="m 197.5674,154.72576 1.45345,-1.98014 c 0.32808,-0.45085 0.85372,-0.49988 1.22766,-0.115 0.75142,0.77893 0.20814,2.09514 -0.86783,2.09514 h -1.81328"
       style="fill:#4d4d4d;fill-opacity:1;fill-rule:nonzero;stroke:none;stroke-width:0.0352778"
       id="path17560"
       inkscape:export-xdpi="300"
       inkscape:export-ydpi="300" />
    <path
       d="m 197.5674,154.72576 1.45345,1.9805 c 0.32808,0.45049 0.85372,0.49953 1.22766,0.11465 0.75142,-0.77858 0.20814,-2.09515 -0.86783,-2.09515 h -1.81328"
       style="fill:#4d4d4d;fill-opacity:1;fill-rule:nonzero;stroke:none;stroke-width:0.0352778"
       id="path17562"
       inkscape:export-xdpi="300"
       inkscape:export-ydpi="300" />
    <path
       d="m 52.65511,154.82066 -1.45273,-1.98049 c -0.33091,-0.4505 -0.85443,-0.49954 -1.22732,-0.11466 -0.75424,0.77858 -0.21061,2.09515 0.86537,2.09515 h 1.81468"
       style="fill:#4d4d4d;fill-opacity:1;fill-rule:nonzero;stroke:none;stroke-width:0.0352778"
       id="path17564"
       inkscape:export-xdpi="300"
       inkscape:export-ydpi="300" />
    <path
       d="m 52.65511,154.82066 -1.45273,1.98049 c -0.33091,0.4505 -0.85443,0.49954 -1.22732,0.11466 -0.75424,-0.77894 -0.21061,-2.09515 0.86537,-2.09515 h 1.81468"
       style="fill:#4d4d4d;fill-opacity:1;fill-rule:nonzero;stroke:none;stroke-width:0.0352778"
       id="path17566"
       inkscape:export-xdpi="300"
       inkscape:export-ydpi="300" />
  </g>
</svg>
